<svg xmlns="http://www.w3.org/2000/svg" width="86" height="11" viewBox="0 0 86 11" fill="none"><path d="M29.8466 9.91557H28.7345C28.7345 9.91557 23.5477 2.23474 23.1978 1.70687V9.9126H22.317V0.327881H23.3253L28.9747 8.74417V0.327881H29.8466V9.9126V9.91557Z" fill="#F2F2F2"></path><path d="M0 0.331055H7.7609V1.15845H5.52782C4.84278 1.16735 4.31194 1.56473 4.31194 2.24681V9.91578H3.4282C3.4282 9.81198 3.4282 2.67979 3.4282 2.67979C3.4282 2.67979 3.39558 1.21776 4.55512 1.15845H0.00593241V0.331055H0Z" fill="#F2F2F2"></path><path d="M67.5687 5.25681C67.6013 3.64057 67.9958 2.32979 69.0456 1.28294C70.0035 0.325066 71.1838 -0.0723232 72.5212 0.0107127C74.9649 0.161957 76.6108 2.04806 76.8865 4.30782C77.0586 5.71647 76.8094 7.03911 75.9702 8.20162C74.9767 9.58061 73.5977 10.2063 71.9074 10.1114C69.7395 9.99282 68.1589 8.43293 67.717 6.33034C67.631 5.92406 67.6043 5.50591 67.5687 5.25681ZM75.6499 5.16784C75.6499 4.1981 75.4512 3.38553 74.9886 2.64414C73.7342 0.633484 70.7626 0.577137 69.5438 2.58779C68.6067 4.13582 68.5978 5.78171 69.443 7.37719C70.5551 9.47385 73.3961 9.47384 74.7098 7.86057C75.3741 7.04801 75.638 6.09903 75.6469 5.16784H75.6499Z" fill="#F2F2F2"></path><path d="M56.8541 0.331055H60.4069C62.2277 0.331055 63.4881 1.15549 64.1791 2.78062C64.9472 4.58962 64.873 6.40751 63.8351 8.10975C63.1144 9.29301 62.0231 9.90688 60.6204 9.91578C59.4401 9.92467 56.9401 9.91578 56.8541 9.91578V0.331055ZM60.5225 8.83334C61.341 8.84224 61.9816 8.4923 62.4739 7.85767C63.5296 6.49351 63.6245 4.17443 62.6933 2.65903C62.2426 1.9295 61.6257 1.42535 60.7331 1.40459H58.0789V8.83631H60.5255L60.5225 8.83334Z" fill="#F2F2F2"></path><path d="M39.5052 0.337192H47.269V1.41962H45.0656C44.7542 1.42259 44.3954 1.53232 44.1848 1.77253C44.0277 1.95046 44.001 2.16102 43.995 2.38343V9.91301H42.794V2.77193C42.794 1.55308 43.7548 1.4137 43.7548 1.4137H39.5022V0.334229L39.5052 0.337192Z" fill="#F2F2F2"></path><path d="M66.688 9.91578H65.5226V0.331055H66.688V9.91578Z" fill="#F2F2F2"></path><path d="M54.6507 6.33951C54.6448 7.63843 53.6246 8.81576 52.3316 8.98479C52.2367 8.99666 51.866 8.99666 51.7711 8.98479C50.4782 8.81576 49.458 7.63843 49.4521 6.33951C49.4432 4.40892 49.4521 0.414299 49.4521 0.334229H48.248V6.3484C48.2569 8.5281 50.0066 10.1354 52.0469 10.1295C52.0469 10.1295 52.0499 10.1295 52.0529 10.1295C52.0558 10.1295 52.0558 10.1295 52.0588 10.1295C54.0991 10.1354 55.8251 8.5281 55.8518 6.3484C55.8518 6.3484 55.8547 0.396505 55.8518 0.334229H54.6537V6.33951H54.6507Z" fill="#F2F2F2"></path><path d="M20.0267 0.331055L17.9152 9.50653L15.3529 0.331055H14.3209C14.3209 0.331055 12.3102 7.59077 11.7586 9.50653C11.0558 6.44903 9.64716 0.331055 9.64716 0.331055H8.73376L10.9609 9.91578H12.4318C12.4793 9.91578 14.828 1.27707 14.8369 1.24742C14.8458 1.27707 17.1945 9.91578 17.242 9.91578H18.7129L20.9401 0.331055H20.0267Z" fill="#F2F2F2"></path><path d="M38.5476 7.89339C38.5476 7.42186 38.1651 7.03931 37.6936 7.03931C37.222 7.03931 36.8395 7.42186 36.8395 7.89339C36.8395 7.89932 36.8395 7.90822 36.8395 7.91415H38.5447C38.5447 7.91415 38.5447 7.89932 38.5447 7.89339H38.5476Z" fill="#F2F2F2"></path><path d="M37.1748 5.16814C36.5254 5.4647 35.8344 5.66933 35.1375 5.8176C34.4851 5.95699 33.8149 6.01037 33.2277 6.36624C32.6257 6.731 32.3677 7.32115 32.5397 7.91426H31.2259C31.2259 7.60881 31.2141 7.30929 31.2882 6.97418C31.4661 6.17051 31.9821 5.60705 32.7057 5.27787C33.3493 4.98428 34.0343 4.80338 34.7194 4.64027C35.3629 4.48903 36.0776 4.42379 36.6499 4.07682C37.3202 3.67053 37.5693 2.99142 37.2697 2.33899C37.1007 1.96533 36.813 1.70139 36.4601 1.50863C35.8611 1.18242 35.2205 1.10235 34.5533 1.18835C33.542 1.31587 32.7443 1.97719 32.4981 2.90838C32.4566 3.06852 32.4359 3.23459 32.4032 3.39473H31.223C31.1725 2.62665 31.567 1.70139 32.1897 1.10531C33.5776 -0.220295 36.1517 -0.312226 37.6315 0.912554C38.4382 1.57981 38.8237 2.41906 38.5894 3.47184C38.4115 4.27848 37.8955 4.83897 37.1719 5.16814H37.1748Z" fill="#F2F2F2"></path><path d="M85.1163 2.27906C85.1163 2.75059 84.7337 3.13314 84.2622 3.13314C83.7906 3.13314 83.4081 2.75059 83.4081 2.27906C83.4081 2.27313 83.4081 2.26423 83.4081 2.2583H85.1133C85.1133 2.2583 85.1133 2.27313 85.1133 2.27906H85.1163Z" fill="#F2F2F2"></path><path d="M83.7402 5.00442C83.0907 4.70786 82.3997 4.50324 81.7028 4.35496C81.0504 4.21558 80.3802 4.1622 79.793 3.80633C79.191 3.44156 78.933 2.85141 79.105 2.2583H77.7912C77.7912 2.56375 77.7794 2.86328 77.8535 3.19839C78.0314 4.00206 78.5474 4.56551 79.271 4.89469C79.9146 5.18828 80.5996 5.36919 81.2847 5.53229C81.9282 5.68354 82.6429 5.74878 83.2152 6.09575C83.8855 6.50203 84.1346 7.18115 83.8351 7.83357C83.666 8.20723 83.3784 8.47117 83.0255 8.66393C82.4264 8.99015 81.7858 9.07022 81.1186 8.98421C80.1073 8.8567 79.3096 8.19537 79.0635 7.26418C79.0219 7.10404 79.0012 6.93797 78.9686 6.77783H77.7883C77.7378 7.54591 78.1323 8.47117 78.755 9.06725C80.1429 10.3929 82.717 10.4848 84.1969 9.26001C85.0035 8.59276 85.389 7.7535 85.1547 6.70073C84.9768 5.89409 84.4608 5.3336 83.7372 5.00442H83.7402Z" fill="#F2F2F2"></path></svg>